<svg height="800" viewBox="0 0 24 24" width="800" xmlns="http://www.w3.org/2000/svg"><path d="m18 22h-12a2 2 0 0 1 -2-2v-16a2 2 0 0 1 2-2h7.1a2 2 0 0 1 1.5.6l4.9 5.2a2 2 0 0 1 .5 1.4v10.8a2 2 0 0 1 -2 2z" fill="none" stroke="#000" stroke-linecap="round" stroke-linejoin="round" stroke-width="2"/><path d="m8.363636 15.330977q-.2695312 0-.4628906-.193359-.1875-.193359-.1875-.462891 0-.269531.1875-.46289.1933594-.199219.4628906-.199219.2753906 0 .46875.199219.1933594.193359.1933594.46289 0 .269532-.1933594.462891-.1933594.193359-.46875.193359zm3.251953-.996093h-.02344v3.626953h-.960935v-8.7597658h.960938v1.0546878h.02344q.708985-1.1953128 2.074219-1.1953128 1.160156 0 1.810547.8085937.65039.8027341.65039 2.1562501 0 1.505859-.732421 2.414062-.732422.902344-2.003907.902344-1.166015 0-1.798828-1.007812zm-.02344-2.419922v.83789q0 .744141.480468 1.265625.486329.515625 1.230469.515625.873047 0 1.365235-.667968.498046-.667969.498046-1.857422 0-1.001953-.46289-1.570313-.462891-.5683591-1.253906-.5683591-.837891 0-1.347657.5859371-.509765.580079-.509765 1.458985z" stroke-width=".03"/></svg>